<svg xmlns="http://www.w3.org/2000/svg" version="1.1" xmlns:xlink="http://www.w3.org/1999/xlink" xmlns:svgjs="http://svgjs.dev/svgjs" width="1440" height="560" preserveAspectRatio="none" viewBox="0 0 1440 560"><g mask="url(&quot;#SvgjsMask1000&quot;)" fill="none"><rect width="1440" height="560" x="0" y="0" fill="#0e2a47"></rect><path d="M422.12 658.85C549.83 640.8 616.27 344.08 828.79 341.36 1041.31 338.64 1032.12 411.36 1235.45 411.36 1438.79 411.36 1538.96 341.61 1642.12 341.36" stroke="rgba(51,121,194,0.58)" stroke-width="2"></path><path d="M356.12 668.45C484.24 654.5 560.56 376.29 779.55 374.41 998.54 372.53 991.26 444.41 1202.97 444.41 1414.69 444.41 1519.11 374.65 1626.4 374.41" stroke="rgba(51,121,194,0.58)" stroke-width="2"></path><path d="M386.42 580.93C512.73 558.26 568.39 246.82 772.84 243.06 977.29 239.3 966.05 313.06 1159.26 313.06 1352.47 313.06 1447.5 243.34 1545.68 243.06" stroke="rgba(51,121,194,0.58)" stroke-width="2"></path><path d="M568.01 569.87C717.37 550.42 806.48 208.02 1049.49 207.71 1292.51 207.4 1397.75 431.53 1530.98 437.31" stroke="rgba(51,121,194,0.58)" stroke-width="2"></path><path d="M174.59 612.84C362.5 605.16 495.97 301.54 856.43 295.05 1216.9 288.56 1363.68 144.75 1538.28 143.85" stroke="rgba(51,121,194,0.58)" stroke-width="2"></path></g><defs><mask id="SvgjsMask1000"><rect width="1440" height="560" fill="#ffffff"></rect></mask></defs></svg>