<svg xmlns="http://www.w3.org/2000/svg" version="1.1" xmlns:xlink="http://www.w3.org/1999/xlink" xmlns:svgjs="http://svgjs.dev/svgjs" width="1440" height="560" preserveAspectRatio="none" viewBox="0 0 1440 560"><g mask="url(&quot;#SvgjsMask1002&quot;)" fill="none"><rect width="1440" height="560" x="0" y="0" fill="url(&quot;#SvgjsLinearGradient1003&quot;)"></rect><path d="M1440 0L895.64 0L1440 223.26z" fill="rgba(255, 255, 255, .1)"></path><path d="M895.64 0L1440 223.26L1440 303.57L779.22 0z" fill="rgba(255, 255, 255, .075)"></path><path d="M779.22 0L1440 303.57L1440 401.81L462.82000000000005 0z" fill="rgba(255, 255, 255, .05)"></path><path d="M462.82000000000005 0L1440 401.81L1440 456.46L257.12000000000006 0z" fill="rgba(255, 255, 255, .025)"></path><path d="M0 560L208.66 560L0 553.21z" fill="rgba(0, 0, 0, .1)"></path><path d="M0 553.21L208.66 560L456.32 560L0 548.76z" fill="rgba(0, 0, 0, .075)"></path><path d="M0 548.76L456.32 560L945.15 560L0 285.15z" fill="rgba(0, 0, 0, .05)"></path><path d="M0 285.15L945.15 560L1134.87 560L0 213.39999999999998z" fill="rgba(0, 0, 0, .025)"></path></g><defs><mask id="SvgjsMask1002"><rect width="1440" height="560" fill="#ffffff"></rect></mask><linearGradient x1="15.28%" y1="-39.29%" x2="84.72%" y2="139.29%" gradientUnits="userSpaceOnUse" id="SvgjsLinearGradient1003"><stop stop-color="#0e2a47" offset="0"></stop><stop stop-color="#00459e" offset="1"></stop></linearGradient></defs></svg>