<svg xmlns="http://www.w3.org/2000/svg" version="1.1" xmlns:xlink="http://www.w3.org/1999/xlink" xmlns:svgjs="http://svgjs.dev/svgjs" width="1440" height="560" preserveAspectRatio="none" viewBox="0 0 1440 560"><g mask="url(&quot;#SvgjsMask1117&quot;)" fill="none"><rect width="1440" height="560" x="0" y="0" fill="rgba(116, 169, 223, 1)"></rect><path d="M0,396.757C72.358,382.259,132.688,342.501,197.846,307.855C269.533,269.738,351.593,247.428,401.413,183.319C457.728,110.851,505.049,20.106,492.062,-70.748C479.073,-161.615,395.278,-221.076,333.858,-289.29C273.662,-356.144,223.546,-442.1,136.669,-465.452C50.228,-488.687,-40.144,-450.26,-120.829,-411.506C-192.613,-377.027,-236.593,-309.286,-296.854,-257.225C-369.664,-194.322,-484.291,-165.765,-511.949,-73.607C-539.594,18.508,-479.226,113.368,-433.461,197.955C-390.099,278.102,-339.159,360.869,-256.33,398.858C-177.057,435.216,-85.513,413.891,0,396.757" fill="#619ddb"></path><path d="M1440 1007.685C1535.291 1008.319 1634.93 1038.703 1719.82 995.408 1807.522 950.6800000000001 1874.653 865.742 1903.1109999999999 771.496 1930.188 681.825 1893.09 588.95 1869.959 498.181 1849.166 416.587 1818.142 341.978 1775.196 269.551 1723.642 182.60700000000003 1692.367 59.120000000000005 1594.538 33.69200000000001 1496.193 8.129999999999995 1410.381 104.84199999999998 1319.974 151.23000000000002 1247.075 188.635 1172.916 220.31400000000002 1115.984 279.239 1056.662 340.637 1001.7090000000001 410.748 987.8399999999999 494.98900000000003 973.845 579.99 1011.073 661.566 1039.658 742.83 1070.9940000000001 831.913 1083.805 939.595 1162.563 991.7 1241.416 1043.867 1345.455 1007.056 1440 1007.685" fill="#87b5e3"></path></g><defs><mask id="SvgjsMask1117"><rect width="1440" height="560" fill="#ffffff"></rect></mask></defs></svg>